<svg id="Layer_1" data-name="Layer 1" xmlns="http://www.w3.org/2000/svg" xmlns:xlink="http://www.w3.org/1999/xlink" viewBox="0 0 1920 1080"><defs><style>.cls-1,.cls-24,.cls-27,.cls-28,.cls-30,.cls-37{fill:none;}.cls-2{fill:#d92370;}.cls-3{fill:#ff5f5f;}.cls-4{fill:#3c388c;}.cls-29,.cls-5{fill:#fff;}.cls-6{fill:#38a59b;}.cls-7{fill:#ffc757;}.cls-8{fill:#ff5768;}.cls-10,.cls-9{fill:#95b9c1;}.cls-13,.cls-9{opacity:0.3;}.cls-10{opacity:0.25;}.cls-11{fill:#f6f1e1;}.cls-12{fill:#88acfc;}.cls-13{fill:#ffe4d8;}.cls-14{fill:#ffc76b;}.cls-15{fill:#65bbe5;}.cls-16{fill:#1664ab;}.cls-17{fill:#dcf0ff;}.cls-18,.cls-22{fill:#59b3f7;}.cls-18{opacity:0.3;}.cls-19{fill:#ff9929;}.cls-20{fill:#ffb640;}.cls-21{fill:#0d142d;}.cls-23{fill:#ff9c8f;}.cls-24,.cls-27,.cls-28{stroke:#0d142d;}.cls-24,.cls-27,.cls-28,.cls-30{stroke-linecap:round;stroke-linejoin:round;}.cls-24,.cls-30{stroke-width:1.5px;}.cls-25{fill:#22133e;}.cls-26{clip-path:url(#clip-path);}.cls-27{stroke-width:2px;}.cls-28{stroke-width:4px;}.cls-29{opacity:0.8;}.cls-30{stroke:#1664ab;}.cls-31{fill:#2e6eaf;}.cls-32{clip-path:url(#clip-path-2);}.cls-33{fill:#00b5bf;}.cls-34{fill:#0092a0;}.cls-35{fill:#ff4000;}.cls-36{fill:#901200;}.cls-37{stroke:#ffc794;stroke-miterlimit:10;opacity:0.5;}.cls-38{fill:#ffc794;}.cls-39{clip-path:url(#clip-path-3);}</style><clipPath id="clip-path"><rect class="cls-1" x="824.31" y="964.92" width="17.33" height="12.94" transform="translate(1665.95 1942.78) rotate(180)"/></clipPath><clipPath id="clip-path-2"><rect class="cls-1" x="321.81" y="775" width="17.59" height="12.27"/></clipPath><clipPath id="clip-path-3"><rect class="cls-1" x="1382.45" y="767.19" width="16.3" height="12.24" transform="translate(2781.19 1546.61) rotate(180)"/></clipPath></defs><path class="cls-2" d="M94.5,813.94h0c0,49.64-42.31,89.88-94.5,89.88H0C0,854.18,42.31,813.94,94.5,813.94Z"/><path class="cls-2" d="M94.5,813.94h0C42.31,813.94,0,773.7,0,724.06H0C52.19,724.06,94.5,764.3,94.5,813.94Z"/><path class="cls-3" d="M91.68,1078.93h0C41.05,1078.93,0,1039.72,0,991.35H0C0,943,41.05,903.77,91.68,903.77h0c50.64,0,91.69,39.21,91.69,87.58h0C183.37,1039.72,142.32,1078.93,91.68,1078.93Z"/><path class="cls-2" d="M1099.12,1078.93H641.82c-50.65,0-91.71-39.21-91.71-87.58h0c0-48.37,41.06-87.58,91.71-87.58h457.3Z"/><path class="cls-2" d="M733.47,1079.93H641.82c-50.65,0-91.71-39.21-91.71-87.58h0c0-48.37,41.06-87.58,91.71-87.58h91.65Z"/><path class="cls-4" d="M1099.12,1034.39H641.79c-25.32,0-45.84-19.49-45.84-43.54h0c0-24.05,20.52-43.54,45.84-43.54h457.33Z"/><path class="cls-5" d="M733.47,1034.39H641.79c-25.32,0-45.84-19.49-45.84-43.54h0c0-24.05,20.52-43.54,45.84-43.54h91.68Z"/><path class="cls-5" d="M91.68,1034.39h0c-25.31,0-45.84-19.49-45.84-43.54h0c0-24.05,20.53-43.54,45.84-43.54h0c25.32,0,45.85,19.49,45.85,43.54h0C137.53,1014.9,117,1034.39,91.68,1034.39Z"/><path class="cls-6" d="M641.79,904.51h0c0-49.42-41-89.48-91.68-89.48h0c50.63,0,91.68-40.07,91.68-89.49h0c0,49.42,41.05,89.49,91.68,89.49h0C682.84,815,641.79,855.09,641.79,904.51Z"/><polygon class="cls-3" points="550.11 867.33 519.66 897.04 512.01 904.51 540.53 904.51 550.11 895.16 550.11 867.33"/><polygon class="cls-3" points="480.02 904.51 509.04 876.19 533.92 851.9 550.11 836.1 550.11 808.26 519.66 837.98 494.77 862.27 459.15 897.04 451.5 904.51 480.02 904.51"/><polygon class="cls-3" points="388.01 758.07 412.9 733.78 421.34 725.54 392.82 725.54 373.75 744.15 366.74 751 366.74 778.83 388.01 758.07"/><polygon class="cls-3" points="388.01 817.13 412.9 792.84 448.52 758.07 473.41 733.78 481.85 725.54 453.33 725.54 434.26 744.15 398.64 778.92 373.75 803.21 366.74 810.05 366.74 837.89 388.01 817.13"/><polygon class="cls-3" points="388.01 876.19 412.9 851.9 448.52 817.13 473.41 792.84 509.04 758.07 533.92 733.78 542.36 725.54 513.84 725.54 494.77 744.15 459.15 778.92 434.26 803.21 398.64 837.98 373.75 862.27 366.74 869.12 366.74 896.96 388.01 876.19"/><polygon class="cls-3" points="419.51 904.51 448.52 876.19 473.41 851.9 509.04 817.13 533.92 792.84 550.11 777.04 550.11 749.21 519.66 778.92 494.77 803.21 459.15 837.98 434.26 862.27 398.64 897.04 390.98 904.51 419.51 904.51"/><path class="cls-7" d="M461.42,864.77h0c-25.32,0-45.84-20-45.84-44.74h0c0-24.71,20.52-44.75,45.84-44.75h0c25.32,0,45.84,20,45.84,44.75h0C507.26,844.74,486.74,864.77,461.42,864.77Z"/><path class="cls-8" d="M1099.12,902.77v44.31c25.32,0,45.84,19.84,45.84,44.31s-20.52,44.3-45.84,44.3V1080c50.64,0,91.68-39.67,91.68-88.61S1149.76,902.77,1099.12,902.77Z"/><path class="cls-9" d="M172,724.06H367a0,0,0,0,1,0,0V903.82a0,0,0,0,1,0,0H182.63A10.63,10.63,0,0,1,172,893.19V724.06A0,0,0,0,1,172,724.06Z" transform="translate(539 1627.87) rotate(180)"/><path class="cls-10" d="M118,879.67a77.62,77.62,0,0,0,16.52,14c1.27.69,2.55,1.4,3.8,2.19.29.16.57.33.86.48,1.71.73,3.41,1.46,5.11,2.24l2.5,1.16c.56.21,1.13.39,1.7.59a5.46,5.46,0,0,1,.61.21c.18.06.35.13.53.18,3,.57,5.89,1.52,8.85,2s6,.53,8.93,1.1c.69,0,1.37.05,2.06.05,2,0,4-.1,6-.28,38.88-3.66,69.48-42.38,69.48-89.6,0-49.64-33.8-89.88-75.5-89.88S94,764.3,94,813.94c0,23.11,7.34,44.17,19.38,60.09.14.18.28.35.41.54s.27.37.42.55a3.5,3.5,0,0,1,.33.43l.71.87,0,0,0,0,.8,1"/><path class="cls-2" d="M1145,991.66c0-24.5-20.52-44.35-45.84-44.35V1036C1124.44,1036,1145,1016.15,1145,991.66Z"/><path class="cls-8" d="M1053.28,991.66c0,24.49,20.52,44.34,45.84,44.34V947.31C1073.8,947.31,1053.28,967.16,1053.28,991.66Z"/><rect class="cls-7" x="186.2" y="900.66" width="177.22" height="183.46" transform="translate(-717.57 1267.2) rotate(-90)"/><path class="cls-5" d="M366.55,992.38V1081H274.82c0-48.94,41.05-88.62,91.69-88.62Z"/><rect class="cls-11" x="370.7" y="899.62" width="175.15" height="183.46" transform="translate(-533.08 1449.63) rotate(-90)"/><polygon class="cls-6" points="416.53 951.72 500.1 951.72 500.1 1031.57 416.53 951.72"/><path class="cls-8" d="M1284.73,1080h0c-50.64,0-91.69-39.33-91.69-87.85V904.3h183.37v87.85C1376.41,1040.67,1335.36,1080,1284.73,1080Z"/><path class="cls-5" d="M1284.73,1035.66h0c-25.32,0-45.85-19.6-45.85-43.78V904.3h91.69v87.58C1330.57,1016.06,1310,1035.66,1284.73,1035.66Z"/><path class="cls-12" d="M1015.6,903.14H833.52v-.09c0-98.12,81.52-177.67,182.08-177.67h0Z"/><path class="cls-13" d="M1331,725.38h211.49A17.51,17.51,0,0,1,1560,742.9V903.14a0,0,0,0,1,0,0H1331a0,0,0,0,1,0,0V725.38A0,0,0,0,1,1331,725.38Z"/><path class="cls-5" d="M1015.6,907.38H906.72v0c0-53.53,48.75-96.93,108.88-96.93h0Z"/><rect class="cls-14" x="1742" y="903.75" width="178.5" height="177.03" transform="translate(3662.5 1984.53) rotate(180)"/><polygon class="cls-5" points="1742.51 904.11 1920.5 904.11 1920.5 1079.7 1742.51 904.11"/><rect class="cls-5" x="1559.72" y="904.36" width="182.28" height="175.1"/><path class="cls-15" d="M1743,1080c-50.61,0-91.65-39.32-91.65-87.82h0c0-48.5,41-87.82,91.65-87.82Z"/><path class="cls-15" d="M1559.72,1079.45c50.62,0,91.65-39.19,91.65-87.54h0c0-48.35-41-87.54-91.65-87.54Z"/><rect class="cls-6" x="1376.41" y="904.36" width="183.31" height="176.64" transform="translate(2936.13 1985.36) rotate(180)"/><path class="cls-5" d="M1492.86,904.36h63.54a3.32,3.32,0,0,1,3.32,3.32v170a3.32,3.32,0,0,1-3.32,3.32H1379.73a3.32,3.32,0,0,1-3.32-3.32v-56.87A116.45,116.45,0,0,1,1492.86,904.36Z" transform="translate(2936.13 1985.36) rotate(-180)"/><rect class="cls-11" x="1015.78" y="725" width="182.09" height="179"/><rect class="cls-16" x="1742.57" y="725.63" width="178.43" height="178.5"/><path class="cls-2" d="M1070.22,866.41c0,4.66-4.24,8.43-9.47,8.43s-9.47-3.77-9.47-8.43,4.24-8.43,9.47-8.43S1070.22,861.76,1070.22,866.41Z"/><path class="cls-2" d="M1119.39,866.41c0,4.66-4.24,8.43-9.47,8.43s-9.47-3.77-9.47-8.43,4.24-8.43,9.47-8.43S1119.39,861.76,1119.39,866.41Z"/><path class="cls-2" d="M1168.55,866.41c0,4.66-4.24,8.43-9.47,8.43s-9.47-3.77-9.47-8.43,4.24-8.43,9.47-8.43S1168.55,861.76,1168.55,866.41Z"/><path class="cls-2" d="M1070.22,823.3c0,4.65-4.24,8.43-9.47,8.43s-9.47-3.78-9.47-8.43,4.24-8.43,9.47-8.43S1070.22,818.64,1070.22,823.3Z"/><path class="cls-2" d="M1119.39,823.3c0,4.65-4.24,8.43-9.47,8.43s-9.47-3.78-9.47-8.43,4.24-8.43,9.47-8.43S1119.39,818.64,1119.39,823.3Z"/><path class="cls-2" d="M1168.55,823.3c0,4.65-4.24,8.43-9.47,8.43s-9.47-3.78-9.47-8.43,4.24-8.43,9.47-8.43S1168.55,818.64,1168.55,823.3Z"/><path class="cls-2" d="M1070.22,780.18c0,4.66-4.24,8.43-9.47,8.43s-9.47-3.77-9.47-8.43,4.24-8.43,9.47-8.43S1070.22,775.53,1070.22,780.18Z"/><path class="cls-2" d="M1119.39,780.18c0,4.66-4.24,8.43-9.47,8.43s-9.47-3.77-9.47-8.43,4.24-8.43,9.47-8.43S1119.39,775.53,1119.39,780.18Z"/><path class="cls-2" d="M1168.55,780.18c0,4.66-4.24,8.43-9.47,8.43s-9.47-3.77-9.47-8.43,4.24-8.43,9.47-8.43S1168.55,775.53,1168.55,780.18Z"/><rect class="cls-3" x="1559.61" y="725.55" width="183.23" height="177.65"/><polygon class="cls-5" points="1743 903.55 1559.46 903.55 1559.46 726.2 1743 903.55"/><polygon class="cls-16" points="1874.51 775.35 1874.51 775.43 1791.5 856.41 1791.48 856.41 1791.48 775.35 1874.51 775.35"/><polygon class="cls-5" points="1874.51 775.43 1874.51 856.41 1791.5 856.41 1874.51 775.43"/><rect class="cls-17" x="733" y="903" width="366" height="177"/><rect class="cls-18" x="831.66" y="903" width="71.81" height="84.66"/><rect class="cls-18" x="912.39" y="904.07" width="71.81" height="83.58"/><rect class="cls-18" x="733" y="1002.32" width="366" height="77.13"/><path class="cls-19" d="M930,955H883a9.62,9.62,0,0,1-9.16-11.85L877,929a9.46,9.46,0,0,1,9.16-7.52h40.75a9.46,9.46,0,0,1,9.16,7.52l3.14,14.14A9.62,9.62,0,0,1,930,955Z"/><path class="cls-19" d="M938.56,1051.41H874.47c-8.23,0-14.32-16.14-12.48-33.06l4.28-39.45c1.34-12.28,6.51-21,12.48-21h55.53c6,0,11.14,8.71,12.48,21l4.28,39.45C952.88,1035.27,946.79,1051.41,938.56,1051.41Z"/><path class="cls-20" d="M930,962.85H883A9.62,9.62,0,0,1,873.84,951L877,936.86a9.46,9.46,0,0,1,9.16-7.52h40.75a9.46,9.46,0,0,1,9.16,7.52L939.19,951A9.62,9.62,0,0,1,930,962.85Z"/><path class="cls-7" d="M938.56,1059.25H874.47c-8.23,0-14.32-16.14-12.48-33.06l4.28-39.45c1.34-12.28,6.51-21,12.48-21h55.53c6,0,11.14,8.71,12.48,21l4.28,39.45C952.88,1043.11,946.79,1059.25,938.56,1059.25Z"/><polygon class="cls-16" points="1020.38 1070.26 797.17 1070.26 822.34 1026.95 995.21 1026.95 1020.38 1070.26"/><rect class="cls-21" x="797.17" y="1070.26" width="223.21" height="8.12"/><path class="cls-2" d="M892.4,979.29s-12.74,2.52-18.07,11,9.3,36.8,9.3,36.8H934s11.3-28.42,3.74-36.13-19.54-9.61-19.54-9.61Z"/><path class="cls-22" d="M927.53,952.37c0,12.5-9.83,9.36-21.95,9.36s-22,3.14-22-9.36,9.83-22.63,22-22.63S927.53,939.87,927.53,952.37Z"/><path class="cls-2" d="M898.42,960.76a8.39,8.39,0,1,1-8-9A8.5,8.5,0,0,1,898.42,960.76Z"/><path class="cls-2" d="M929.58,962.75a8.39,8.39,0,1,1-8-9A8.49,8.49,0,0,1,929.58,962.75Z"/><path class="cls-23" d="M892.4,979.29s.4,12.43,12.79,13.72c14.2,1.48,13-11.69,13-11.69s-4-2.13-4.61-8.09c-1.1-11.21-18.18-9.4-18.18-9.4S901.82,977,892.4,979.29Z"/><path class="cls-21" d="M915.73,979c-12.62,9.94-18.72-11-18.72-11l-.16-.18a26,26,0,0,0-1.42-3.93s17.09-1.82,18.18,9.4A11.46,11.46,0,0,0,915.73,979Z"/><path class="cls-23" d="M890,946.74c-2.59,10.19,5.12,27.25,14.2,29.7s16.09-10.63,18.68-20.81-2.67-20.44-11.75-22.89S892.59,936.55,890,946.74Z"/><path class="cls-21" d="M891,960.06l-.24-8.35s4.92,2.46,8.48-8.21a23.35,23.35,0,0,0,21.53,10.86l-.18,8.13s5.52-2.94,4.6-17.87l2.45-1.67s-14-23-31-9.2c0,0-12.2,2.92-12.65,13.59l2.59,1.74C885.92,955.41,887.59,958.81,891,960.06Z"/><path class="cls-24" d="M904.76,961.8a4,4,0,0,1,3.58-.52c1.79.79-1.5,3.5-1.5,3.5"/><line class="cls-24" x1="906.25" y1="957.34" x2="906.47" y2="961.1"/><path class="cls-21" d="M901.18,958.26c0,1.18-.69,2.11-1.43,2.07s-1.3-1-1.25-2.19.69-2.11,1.43-2.08S901.23,957.08,901.18,958.26Z"/><path class="cls-21" d="M913.59,959.17c-.05,1.18-.69,2.11-1.43,2.08s-1.3-1-1.25-2.19.69-2.11,1.43-2.08S913.64,958,913.59,959.17Z"/><path class="cls-5" d="M902.12,967.35l9-.75s-1.78,4.21-4.37,4.1S902.12,967.35,902.12,967.35Z"/><path class="cls-21" d="M896.4,954.61l5.21-.75c.87-.13,1.13-1,.43-1.48a4.3,4.3,0,0,0-2.13-.64C897.44,951.63,896.4,954.61,896.4,954.61Z"/><path class="cls-21" d="M916,955.46l-5.23-.58c-.87-.09-1.16-1-.48-1.45a4.17,4.17,0,0,1,2.11-.72C914.83,952.52,916,955.46,916,955.46Z"/><polygon class="cls-22" points="918.22 1055.69 896.38 1055.69 893.4 1063.59 921.2 1063.59 918.22 1055.69"/><path class="cls-22" d="M962.07,1043.26c0,9.09-110.5,9.09-110.5,0v-47.4c0,7.19,110.5,7.19,110.5,0Z"/><path class="cls-25" d="M962.07,1045.68c0,9.09-110.5,9.09-110.5,0v-47.4c0,7.19,110.5,7.19,110.5,0Z"/><rect class="cls-21" x="903.82" y="1045.68" width="5.99" height="13.63"/><rect class="cls-21" x="893.4" y="1063.59" width="27.81" height="2.38"/><path class="cls-22" d="M910.09,1032.11a3.85,3.85,0,1,1-3.84-4A3.9,3.9,0,0,1,910.09,1032.11Z"/><path class="cls-21" d="M828.17,998.36a.68.68,0,0,0,.59-.35l7-12.49a.71.71,0,0,0-.25-1,.67.67,0,0,0-.93.26l-7,12.49a.71.71,0,0,0,.25,1A.67.67,0,0,0,828.17,998.36Z"/><path class="cls-21" d="M828.17,999.42a1.7,1.7,0,0,0,1.47-.88l2.45-4.36a1.78,1.78,0,0,0-.62-2.4,1.68,1.68,0,0,0-2.33.64l-2.45,4.36a1.79,1.79,0,0,0,.62,2.4A1.7,1.7,0,0,0,828.17,999.42Z"/><path class="cls-21" d="M835,1061.15a1,1,0,0,0,1-1.05V970.81l7.5,1.19a1,1,0,0,0,1.17-.88,1,1,0,0,0-.86-1.2l-8.68-1.38a1,1,0,0,0-.82.24,1.07,1.07,0,0,0-.36.8v90.52A1,1,0,0,0,835,1061.15Z"/><path class="cls-21" d="M828.14,986.68h14.1a1.49,1.49,0,0,0,1.47-1.51h0a1.49,1.49,0,0,0-1.47-1.51h-14.1a1.49,1.49,0,0,0-1.47,1.51h0A1.49,1.49,0,0,0,828.14,986.68Z"/><path class="cls-21" d="M830.18,1007.68h10a1.49,1.49,0,0,0,1.46-1.51h0a1.49,1.49,0,0,0-1.46-1.52h-10a1.49,1.49,0,0,0-1.46,1.52h0A1.49,1.49,0,0,0,830.18,1007.68Z"/><rect class="cls-21" x="832.6" y="994.75" width="5.19" height="12.35" transform="translate(1670.38 2001.86) rotate(180)"/><path class="cls-21" d="M850.82,1061.15l.21,0a1.05,1.05,0,0,0,.79-1.25L836,1006a1,1,0,0,0-1.21-.82,1.07,1.07,0,0,0-.79,1.25l15.8,53.93A1,1,0,0,0,850.82,1061.15Z"/><path class="cls-21" d="M819.23,1061.15a1,1,0,0,0,1-.84L836,1006.38a1.05,1.05,0,0,0-.79-1.25,1,1,0,0,0-1.21.82l-15.79,53.93a1,1,0,0,0,.79,1.25Z"/><path class="cls-21" d="M822,1047.22a.67.67,0,0,0,.55-.29L835,1029.45l12.46,17.48a.68.68,0,0,0,1,.16.73.73,0,0,0,.14-1l-13-18.25a.7.7,0,0,0-1.1,0l-13,18.25a.73.73,0,0,0,.15,1A.66.66,0,0,0,822,1047.22Z"/><path class="cls-21" d="M835,1043.14a2.42,2.42,0,0,0,2.39-2.46v-14.1a2.39,2.39,0,1,0-4.77,0v14.1A2.42,2.42,0,0,0,835,1043.14Z"/><path class="cls-16" d="M856.44,967.31c1.12,0,2,2.08,2,4.63s-.9,4.64-2,4.64h-6.27v-9.27Z"/><path class="cls-21" d="M850.17,967.31v9.26h6.27c.68,0,1.29-.77,1.65-2-2.25-.22-4-2.55-4-5.39a6.26,6.26,0,0,1,.3-1.91Z"/><path class="cls-16" d="M853.21,966c1.45,0,2.62,2.68,2.62,6s-1.17,6-2.62,6H845.1V966Z"/><path class="cls-21" d="M845.1,966v12h8.12c1,0,1.88-1.32,2.31-3.25a3.83,3.83,0,0,1-.6.05c-3.23,0-5.86-3.39-5.86-7.57a9.42,9.42,0,0,1,.08-1.2Z"/><rect class="cls-21" x="821.25" y="962.7" width="27.55" height="17.52" transform="translate(1670.05 1942.92) rotate(180)"/><rect class="cls-7" x="824.31" y="964.92" width="17.33" height="12.94" transform="translate(1665.95 1942.78) rotate(180)"/><rect class="cls-16" x="845.1" y="962.7" width="5.88" height="17.52" transform="translate(1696.09 1942.92) rotate(180)"/><rect class="cls-21" x="825.91" y="961.25" width="16.54" height="1.45" transform="translate(1668.36 1923.95) rotate(180)"/><rect class="cls-21" x="825.91" y="980.22" width="16.54" height="2.29" transform="translate(1668.36 1962.73) rotate(180)"/><rect class="cls-16" x="842.45" y="980.22" width="5.19" height="2.29" transform="translate(1690.08 1962.73) rotate(180)"/><rect class="cls-16" x="842.45" y="961.25" width="5.19" height="1.45" transform="translate(1690.08 1923.95) rotate(180)"/><polygon class="cls-21" points="847.63 980.22 842.45 982.51 842.45 980.22 847.63 980.22"/><line class="cls-24" x1="850.98" y1="962.7" x2="850.98" y2="980.22"/><g class="cls-26"><path class="cls-16" d="M828.88,978.27s-3.89.77-5.52,3.35,2.84,11.25,2.84,11.25h15.41s3.45-8.69,1.14-11a11.94,11.94,0,0,0-6-2.94Z"/><path class="cls-22" d="M839.62,970c0,3.83-3,2.87-6.71,2.87s-6.71,1-6.71-2.87a6.71,6.71,0,1,1,13.42,0Z"/><path class="cls-2" d="M830.72,972.6a2.56,2.56,0,1,1-2.45-2.75A2.59,2.59,0,0,1,830.72,972.6Z"/><path class="cls-2" d="M840.25,973.21a2.56,2.56,0,1,1-2.46-2.75A2.6,2.6,0,0,1,840.25,973.21Z"/><path class="cls-23" d="M828.88,978.27a4.36,4.36,0,0,0,3.91,4.19c4.34.45,4-3.58,4-3.58a3.09,3.09,0,0,1-1.41-2.47c-.34-3.43-5.56-2.87-5.56-2.87S831.76,977.56,828.88,978.27Z"/><path class="cls-21" d="M836,978.17c-3.85,3-5.72-3.38-5.72-3.38l0,0a8.29,8.29,0,0,0-.43-1.2s5.22-.56,5.56,2.87A3.51,3.51,0,0,0,836,978.17Z"/><path class="cls-23" d="M828.15,968.31c-.8,3.12,1.56,8.33,4.34,9.08s4.92-3.25,5.71-6.36-.82-6.25-3.59-7S828.94,965.2,828.15,968.31Z"/><path class="cls-21" d="M828.45,972.39l-.07-2.56s1.5.75,2.59-2.51a7.13,7.13,0,0,0,6.58,3.32l0,2.49s1.68-.9,1.4-5.46l.75-.51s-4.28-7-9.47-2.82c0,0-3.73.89-3.87,4.16l.8.53C826.9,971,827.41,972,828.45,972.39Z"/><path class="cls-21" d="M833.3,974a.2.2,0,0,1-.14-.06.18.18,0,0,1,0-.25c.28-.23.58-.58.56-.72s0,0-.06-.05a1.09,1.09,0,0,0-.93.14.16.16,0,0,1-.24,0,.2.2,0,0,1,0-.25,1.37,1.37,0,0,1,1.26-.17.41.41,0,0,1,.27.32c0,.4-.51.9-.69,1.05A.19.19,0,0,1,833.3,974Z"/><path class="cls-21" d="M833.18,972.88a.18.18,0,0,1-.17-.17l-.07-1.15a.18.18,0,0,1,.16-.18.16.16,0,0,1,.18.16l.07,1.15a.17.17,0,0,1-.16.19Z"/><path class="cls-21" d="M831.57,971.83c0,.36-.21.65-.44.64s-.4-.31-.38-.67.21-.65.43-.64S831.58,971.47,831.57,971.83Z"/><path class="cls-21" d="M835.36,972.11c0,.36-.21.65-.44.64s-.39-.31-.38-.67.21-.65.44-.64S835.37,971.75,835.36,972.11Z"/><path class="cls-5" d="M831.85,974.61l2.75-.22s-.54,1.28-1.34,1.25S831.85,974.61,831.85,974.61Z"/><path class="cls-21" d="M830.1,970.72l1.6-.23c.26,0,.34-.32.13-.45a1.28,1.28,0,0,0-.65-.2C830.42,969.81,830.1,970.72,830.1,970.72Z"/><path class="cls-21" d="M836.09,971l-1.61-.18c-.26,0-.35-.3-.14-.44a1.21,1.21,0,0,1,.64-.22C835.74,970.08,836.09,971,836.09,971Z"/></g><path class="cls-16" d="M977.81,977.82c0,7.7-5.14,13.94-11.47,13.94s-11.48-6.24-11.48-13.94,5.14-14,11.48-14S977.81,970.12,977.81,977.82Z"/><path class="cls-24" d="M977.81,977.82c0,7.7-5.14,13.94-11.47,13.94s-11.48-6.24-11.48-13.94,5.14-14,11.48-14S977.81,970.12,977.81,977.82Z"/><line class="cls-27" x1="977.81" y1="984.24" x2="977.81" y2="1074.66"/><line class="cls-28" x1="977.81" y1="1017.48" x2="977.81" y2="1074.66"/><rect class="cls-16" x="973.26" y="986.15" width="10.28" height="4.39" rx="1.23"/><rect class="cls-22" x="970.16" y="966.78" width="16.5" height="21.74" rx="4.81"/><path class="cls-24" d="M986.65,970.75v13.8s-.26,4-5.59,4h-5.32"/><line class="cls-24" x1="970.16" y1="984.55" x2="970.16" y2="970.75"/><path class="cls-24" d="M966.34,991.76s-2.2,8.8,11.47,8.8"/><path class="cls-18" d="M135.29,892.15A51.37,51.37,0,0,1,124,884a61.58,61.58,0,0,1-10-11c-15-22-16-31-16-31s3.18-.33,3.44-.33H357V893.1H136.71"/><rect class="cls-15" x="217.9" y="733.19" width="149.1" height="98.71"/><rect class="cls-17" x="225.68" y="741.11" width="62.58" height="82.87"/><rect class="cls-17" x="296.64" y="741.11" width="62.58" height="82.87"/><polygon class="cls-29" points="258.9 741.11 288.27 741.11 288.27 749.51 237.66 823.98 225.68 823.98 225.68 789.34 258.9 741.11"/><polygon class="cls-29" points="329.86 741.11 359.22 741.11 359.22 749.51 322.36 823.98 296.64 823.98 296.64 789.34 329.86 741.11"/><polygon class="cls-3" points="348 903 326 903 326.38 863.03 348.43 863.03 348 903"/><path class="cls-21" d="M348.43,863c0,1.13-4.94,2.06-11,2.06s-11-.93-11-2.06,4.94-2.07,11-2.07S348.43,861.9,348.43,863Z"/><path class="cls-7" d="M337.09,865c0,.22.55.62.32.62-.66,0-1.46-.2-2.09-.22-.55-.57-1.4-1.15-2.06-1.85s-1.41-1-2.05-1.72-.44-2.09-1.11-2.84-1.78-1-2.42-1.75-.24-2.21-.87-3-2.11-.78-2.72-1.54-.29-2.14-.88-2.9-2.07-.89-2.64-1.66-1.38-1.38-1.94-2.16-1.27-1.48-1.81-2.27-1.18-1.55-1.7-2.34-.83-1.77-1.33-2.57.12-2.27-.34-3.08-1.91-1.19-2.34-2-1.26-1.6-1.64-2.43.56-2.32.25-3.16a27.52,27.52,0,0,1-1.28-2.54,7.67,7.67,0,0,1,.17-2.72c.11-1.08-.61-2.69.15-3.23s2.13.27,3.35.29c1,0,2.14-.28,3.1.18a11.74,11.74,0,0,1,2.46,1.85c.72.62.85,1.83,1.54,2.63a30.08,30.08,0,0,1,2.18,2.08c.56.79.93,1.72,1.46,2.58s1.53,1.43,2,2.31.09,2.16.54,3.05,2.23,1.16,2.66,2-.39,2.38,0,3.25,1.68,1.47,2.1,2.33.5,1.85.88,2.72,1,1.67,1.31,2.54,1,1.67,1.35,2.54.22,2,.52,2.83.67,1.8.95,2.68,0,2,.23,2.88.39,1.89.63,2.75C336.51,862.75,336.81,863.84,337.09,865Z"/><path class="cls-7" d="M339.79,861c-.29,1.56-.57,2.8-.8,3.9-.46,0-.62,1.31-1.1,1.32a3.11,3.11,0,0,1-1.11-.46c-.22-.61.58-2.06.31-2.82s-1.55-1-1.81-1.7-.12-1.87-.44-2.81.79-2.16.48-3.08-2.55-1.14-2.85-2.06,1.22-2.29.93-3.2-2.72-1.13-3-2,.61-2.11.33-3-1.76-1.44-2-2.35,1.76-2.43,1.49-3.33-1.31-1.59-1.57-2.49.23-2,0-2.91-.65-1.77-.9-2.66-2.05-1.42-2.3-2.31-.65-1.8-.89-2.69,1.21-2.23,1-3.12-2.15-1.48-2.35-2.37,1.33-2.18,1.16-3.08-2.24-1.6-2.35-2.5,2-2.09,1.9-3-2.08-1.9-2-2.78a16.83,16.83,0,0,1,.77-2.84c.22-1,1.12-1.7,1.54-2.48s.58-2,1.32-2.64a8.73,8.73,0,0,1,2.6-1.82c.84-.26,2.15,1.59,3.22,1.53s2.25-1.64,3.13-1.27a8.62,8.62,0,0,1,2.49,2,12.62,12.62,0,0,1,2.05,2.28,20,20,0,0,1,1.69,2.54c.34.85-.86,2.28-.59,3.24s1.44,1.6,1.64,2.57-1.42,2.14-1.26,3.11,1.92,1.64,2,2.61-1.37,2-1.29,3,1.74,1.78,1.79,2.74.52,1.9.55,2.86.32,1.91.33,2.87.16,1.93.15,2.89-.42,1.92-.44,2.87-1.92,1.85-2,2.8,1.45,2,1.39,2.93.44,2,.37,2.9-2.23,1.77-2.31,2.7.51,2,.42,2.91-.79,1.86-.89,2.78,1.91,2.19,1.78,3.1-2,1.72-2.12,2.61S340,860.13,339.79,861Z"/><line class="cls-30" x1="313.22" y1="824.47" x2="337" y2="863.78"/><line class="cls-30" x1="331.69" y1="805.65" x2="337" y2="863.78"/><path class="cls-5" d="M348.43,863v4c0,3.4-22.05,3.4-22.05,0v-4c0,1.13,4.93,2.05,11,2.05S348.43,864.17,348.43,863Z"/><path class="cls-15" d="M135.1,892.11c1.09.65,10.63,5.89,11.9,5.89,14.6,0,20.89-4.9,35.49-4.9H358L295.88,858h-181c-3.72,0-10.88,0-9.88,1a62,62,0,0,0,5,9,84.85,84.85,0,0,0,9,11c5,5,8,7.84,11,10C131.21,889.87,133.81,891.35,135.1,892.11Z"/><path class="cls-31" d="M357,903.82V893.1L137,893s5.13,3.13,7,4,8,3,8,3,6,1.59,8,2c3.22.65,13,2,13,2"/><path class="cls-23" d="M249.4,808.53h0a2.43,2.43,0,0,0,1.27-3.34l-8,1.8h0c-3.13-.09-6,4.43-6,4.43L217,823.88l-7.89-15.82c-6.85-16.92-12.83-16.64-12.83-16.64s-8.5,16.59,2.33,32.64c10,14.75,19.94,16.94,19.94,16.94l25.64-24.79c6,3.57,12.33,4.39,16.39-5.92C260.55,810.29,255,809.64,249.4,808.53Z"/><path class="cls-24" d="M215.21,828.77s-.1-3.71,1.76-4.89"/><line class="cls-24" x1="252.91" y1="809.22" x2="246.15" y2="808.24"/><line class="cls-24" x1="259.67" y1="812.64" x2="252.91" y2="811.66"/><line class="cls-24" x1="257.88" y1="815.18" x2="251.12" y2="813.89"/><line class="cls-24" x1="255.78" y1="817.24" x2="249.02" y2="815.72"/><path class="cls-3" d="M170.25,786s-10.88,0-14.06,9.42.55,62.53.55,62.53l50-1.7s1.16-64.84-10.54-64.84A66.87,66.87,0,0,1,170.25,786Z"/><path class="cls-2" d="M166.93,785.86l2.81-.3c2,5,4.33,12.86,5.47,16.91a3.68,3.68,0,0,0,3.58,2.63H196.3a3.64,3.64,0,0,0,3.71-3.83l-.71-9.56,3.07,2.31.16,3.89a91.3,91.3,0,0,0,3.84,22.77h0V858H160.08s-1-21.33.08-29.47C162.19,812.81,171.81,801.85,166.93,785.86Z"/><line class="cls-24" x1="206.37" y1="820.68" x2="206.37" y2="857.96"/><path class="cls-24" d="M171.32,845.46a8.54,8.54,0,0,0,7.74-9"/><path class="cls-24" d="M203.67,845.46s-3.44-.58-3.44-9"/><path class="cls-21" d="M208,760.68l-1.51,27s-1.8,0-3.69-5.78C199.34,771.33,208,760.68,208,760.68Z"/><path class="cls-23" d="M170.25,786s9.7,0,8.83-16.74c0,0,8.71-3.91,14.51,1s-.79,12.58-.79,12.58-5.62,6.65,3.45,8.62c0,0,2.09,10.11-6.32,9.42S170.25,786,170.25,786Z"/><path class="cls-21" d="M193.38,790.42c-12.32-4.89-14.58-19.23-14.3-21.15,0,0,8.71-3.91,14.51,1s-.79,12.58-.79,12.58S188.8,787.79,193.38,790.42Z"/><path class="cls-23" d="M208,760.68c1,10.14-1.29,22.54-10.11,23.32S177,773.65,176,763.5s5.64-15.07,14.45-15.85S207,750.53,208,760.68Z"/><line class="cls-24" x1="181.27" y1="765.78" x2="183.26" y2="769.89"/><line class="cls-24" x1="179.95" y1="767.97" x2="182.36" y2="768.03"/><path class="cls-21" d="M198.58,766.08a1.22,1.22,0,1,1-1.16-1.5A1.36,1.36,0,0,1,198.58,766.08Z"/><path class="cls-21" d="M205.82,766.58a1.22,1.22,0,1,1-1.16-1.5A1.36,1.36,0,0,1,205.82,766.58Z"/><path class="cls-24" d="M200.29,770.58s3.33-1.5,4.65-.68-2.55,3.15-2.55,3.15"/><line class="cls-24" x1="201.65" y1="766.42" x2="201.97" y2="769.97"/><path class="cls-5" d="M199.38,776.77l-4.67-2.11s-.77,2.85,1.14,3.92S199.38,776.77,199.38,776.77Z"/><path class="cls-21" d="M193.81,761.6s2.38-2.47,4.87-1.05S193.81,761.6,193.81,761.6Z"/><path class="cls-21" d="M208.5,763s-1.58-3-4.38-2.31S208.5,763,208.5,763Z"/><path class="cls-21" d="M188.38,765.31c5.43,16.11-1.69,20.7-1.69,20.7,1.29-4.5-4.66-15.61-1.16-21.27,0,0-7.38-5.69-7.2.9s3.77,6.88,3.77,6.88l-3.81.67s-8-3.08-6.86-17.57S214,741.09,208,760.68a11.42,11.42,0,0,1-5.69-6.47S196.73,762.37,188.38,765.31Z"/><path class="cls-21" d="M184.8,736.23a12.37,12.37,0,0,1-2.8,17.7,13.47,13.47,0,0,1-18.22-3.51,12.36,12.36,0,0,1,2.8-17.7A13.47,13.47,0,0,1,184.8,736.23Z"/><path class="cls-23" d="M161.07,788.93c6.27-1.22,2,48.35,2,48.35l20.65,20.57,8.13,4.55c5,3.79,4.21,7.21-1,4l6.75,8.68-1.77.61c-5.14,1.76-13.15,2.18-16.57-1.92L174,862.82s-17.91-3.78-24-17.18C142.38,828.91,150.33,791,161.07,788.93Z"/><path class="cls-24" d="M156.12,840s.21-3.31,7-2.67"/><line class="cls-24" x1="181.98" y1="871.86" x2="185.64" y2="876.79"/><line class="cls-24" x1="186.54" y1="871.29" x2="190.51" y2="876.79"/><line class="cls-24" x1="189.79" y1="869.61" x2="194.58" y2="876.06"/><path class="cls-21" d="M335.48,806.71a.69.69,0,0,1-.59-.33l-7.13-11.85a.66.66,0,0,1,.25-.91.72.72,0,0,1,.95.25l7.12,11.84a.65.65,0,0,1-.25.91A.73.73,0,0,1,335.48,806.71Z"/><path class="cls-21" d="M335.49,807.71a1.75,1.75,0,0,1-1.5-.83l-2.49-4.13a1.63,1.63,0,0,1,.63-2.28,1.76,1.76,0,0,1,2.36.61l2.49,4.13a1.63,1.63,0,0,1-.63,2.28A1.78,1.78,0,0,1,335.49,807.71Z"/><path class="cls-21" d="M323.32,764c.32,1.62.64,2.92-4.49,3.85s-9.56.36-9.87-1.26,3.59-3.68,8.73-4.6S323,762.36,323.32,764Z"/><path class="cls-21" d="M328.53,904a1,1,0,0,1-1-1V764.15l-7.62,1.08a1,1,0,0,1-1.19-.8,1,1,0,0,1,.87-1.1l8.82-1.25a1.11,1.11,0,0,1,.83.22.93.93,0,0,1,.36.73V903A1,1,0,0,1,328.53,904Z"/><path class="cls-21" d="M335.52,795.63H321.2a1.46,1.46,0,0,1-1.49-1.43h0a1.46,1.46,0,0,1,1.49-1.43h14.32A1.45,1.45,0,0,1,337,794.2h0A1.45,1.45,0,0,1,335.52,795.63Z"/><path class="cls-21" d="M333.44,837.4H323.27a1.46,1.46,0,0,1-1.49-1.43h0a1.46,1.46,0,0,1,1.49-1.43h10.17a1.46,1.46,0,0,1,1.49,1.43h0A1.46,1.46,0,0,1,333.44,837.4Z"/><rect class="cls-21" x="325.72" y="825.15" width="5.27" height="11.71"/><path class="cls-21" d="M312.49,904l-.21,0a.93.93,0,0,1-.81-1.09l16-67.19a1,1,0,0,1,1.23-.71.93.93,0,0,1,.8,1.09l-16,67.19A1,1,0,0,1,312.49,904Z"/><path class="cls-21" d="M345.85,904a1.12,1.12,0,0,1-1.12-.72L327,837.06c-.14-.49.26-1,.88-1.07a1.17,1.17,0,0,1,1.36.7L347,902.91c.14.49-.26,1-.88,1.07Z"/><path class="cls-21" d="M343.23,896.76a.8.8,0,0,1-.62-.27L328.5,879.91l-14.11,16.58a.85.85,0,0,1-1.08.14.61.61,0,0,1-.16-.93l14.73-17.31a.88.88,0,0,1,1.24,0l14.73,17.31a.61.61,0,0,1-.16.93A.84.84,0,0,1,343.23,896.76Z"/><path class="cls-21" d="M328.53,892.89a2.38,2.38,0,0,1-2.43-2.33V877.18a2.43,2.43,0,0,1,4.85,0v13.38A2.38,2.38,0,0,1,328.53,892.89Z"/><path class="cls-16" d="M306.78,777.27c-1.13,0-2,2-2,4.39s.92,4.39,2,4.39h6.37v-8.78Z"/><path class="cls-21" d="M313.15,777.26v8.79h-6.37c-.69,0-1.31-.73-1.67-1.86,2.28-.21,4.07-2.42,4.07-5.11a5.69,5.69,0,0,0-.29-1.82Z"/><path class="cls-16" d="M310.06,776c-1.47,0-2.65,2.54-2.65,5.68s1.18,5.68,2.65,5.68h8.23V776Z"/><path class="cls-21" d="M318.29,776v11.36h-8.23c-1,0-1.92-1.26-2.36-3.08a6,6,0,0,0,.61,0c3.29,0,5.95-3.22,5.95-7.18a8.72,8.72,0,0,0-.07-1.14Z"/><rect class="cls-21" x="314.54" y="772.89" width="27.97" height="16.61"/><rect class="cls-22" x="321.81" y="775" width="17.59" height="12.27"/><rect class="cls-16" x="312.32" y="772.89" width="5.97" height="16.61"/><rect class="cls-21" x="320.99" y="771.52" width="16.79" height="1.37"/><rect class="cls-21" x="320.99" y="789.51" width="16.79" height="2.18"/><rect class="cls-16" x="315.72" y="789.51" width="5.27" height="2.18"/><rect class="cls-16" x="315.72" y="771.52" width="5.27" height="1.37"/><polygon class="cls-21" points="315.72 789.51 320.99 791.68 320.99 789.51 315.72 789.51"/><line class="cls-24" x1="312.32" y1="772.89" x2="312.32" y2="789.51"/><g class="cls-32"><path class="cls-23" d="M330,784.26s1.16,0,2.49,3.24l1.54,3.07,3.82-2.42s.65-1,1.32-.84a25.11,25.11,0,0,0,3.33.62c-.79,2-2.25,1.45-3.19,1.15l-5,4.82s-1.94-.42-3.88-3.29A6.61,6.61,0,0,1,330,784.26Z"/><path class="cls-21" d="M333.67,791.63a.11.11,0,0,1-.11-.11s0-.78.39-1a.12.12,0,0,1,.16,0,.1.1,0,0,1,0,.15c-.25.16-.3.68-.29.86a.11.11,0,0,1-.11.11Z"/><path class="cls-22" d="M324.93,783.21A3,3,0,0,0,322.2,785c-.62,1.84.11,12.16.11,12.16l9.73-.33s.22-12.61-2.05-12.61A13.06,13.06,0,0,1,324.93,783.21Z"/><path class="cls-16" d="M324.29,783.18l.54-.06c.4,1,.85,2.5,1.07,3.29a.71.71,0,0,0,.69.51H330a.7.7,0,0,0,.72-.74l-.14-1.86.6.45,0,.75A18,18,0,0,0,332,790h0v7.25h-9a53.15,53.15,0,0,1,0-5.73C323.37,788.42,325.24,786.29,324.29,783.18Z"/><path class="cls-21" d="M332,797.31a.11.11,0,0,1-.11-.11V790a.11.11,0,0,1,.11-.11.11.11,0,0,1,.12.11v7.25A.11.11,0,0,1,332,797.31Z"/><path class="cls-21" d="M325.14,794.88a.11.11,0,0,1-.11-.1.11.11,0,0,1,.1-.12,1.55,1.55,0,0,0,1.4-1.65.11.11,0,0,1,.12-.11.11.11,0,0,1,.11.11,1.78,1.78,0,0,1-1.61,1.87Z"/><path class="cls-21" d="M331.43,794.88h0s-.76-.15-.76-1.87a.11.11,0,0,1,.11-.11.11.11,0,0,1,.12.11c0,1.51.57,1.65.57,1.65a.11.11,0,0,1,.09.13A.12.12,0,0,1,331.43,794.88Z"/><path class="cls-21" d="M332.26,778.28l-.29,5.24s-.35,0-.72-1.12C330.59,780.36,332.26,778.28,332.26,778.28Z"/><path class="cls-23" d="M324.93,783.21s1.89,0,1.72-3.26a3,3,0,0,1,2.82.19c1.13.94-.15,2.44-.15,2.44s-1.09,1.3.67,1.68c0,0,.41,2-1.23,1.83S324.93,783.21,324.93,783.21Z"/><path class="cls-21" d="M329.43,784.07a4.83,4.83,0,0,1-2.78-4.12,3,3,0,0,1,2.82.19c1.13.94-.15,2.45-.15,2.45S328.54,783.56,329.43,784.07Z"/><path class="cls-23" d="M332.26,778.28c.19,2-.25,4.39-2,4.54s-4.05-2-4.24-4,1.09-2.93,2.81-3.08S332.07,776.31,332.26,778.28Z"/><path class="cls-21" d="M327.46,780.18a.11.11,0,0,1-.1-.06l-.39-.8a.11.11,0,0,1,.06-.14.11.11,0,0,1,.15.05l.39.8a.11.11,0,0,1-.06.14Z"/><path class="cls-21" d="M327.29,779.82h-.47a.1.1,0,0,1-.11-.11.11.11,0,0,1,.11-.11h.47a.12.12,0,0,1,.11.12A.1.1,0,0,1,327.29,779.82Z"/><path class="cls-21" d="M330.44,779.33a.27.27,0,0,1-.23.29.26.26,0,0,1-.23-.29.24.24,0,1,1,.46,0Z"/><path class="cls-21" d="M331.85,779.43a.27.27,0,0,1-.24.29.3.3,0,1,1,.24-.29Z"/><path class="cls-21" d="M331.18,780.8a.11.11,0,0,1-.09,0,.1.1,0,0,1,0-.15c.26-.16.5-.37.5-.44s-.55,0-.8.15a.11.11,0,1,1-.1-.2c.12-.05.73-.31,1-.12a.2.2,0,0,1,.11.18c0,.23-.43.51-.61.61Z"/><path class="cls-21" d="M331.1,780.2a.1.1,0,0,1-.11-.1l-.07-.69a.13.13,0,0,1,.11-.12.11.11,0,0,1,.12.1l.06.69a.11.11,0,0,1-.1.12Z"/><path class="cls-5" d="M330.6,781.41l-.91-.41s-.15.56.22.76S330.6,781.41,330.6,781.41Z"/><path class="cls-21" d="M329.51,778.46s.47-.48.95-.2S329.51,778.46,329.51,778.46Z"/><path class="cls-21" d="M332.37,778.73s-.31-.59-.85-.45S332.37,778.73,332.37,778.73Z"/><path class="cls-21" d="M328.46,779.19c1.05,3.13-.33,4-.33,4,.25-.88-.91-3-.23-4.14,0,0-1.43-1.1-1.4.18s.74,1.34.74,1.34l-.74.13s-1.57-.6-1.34-3.42,8.27-2.82,7.1,1a2.19,2.19,0,0,1-1.1-1.25A6.37,6.37,0,0,1,328.46,779.19Z"/><path class="cls-21" d="M328.53,775.41a2.52,2.52,0,0,1-2.62,2.4,2.49,2.49,0,0,1-2.36-2.63,2.49,2.49,0,1,1,5,.23Z"/><path class="cls-23" d="M323.15,783.78c1.22-.24.39,9.4.39,9.4l4,4,1.58.88c.42.52.27.73-.2.78l1.31,1.68-.34.12c-1,.34-2.56.43-3.22-.37l-1-2.13s-3.48-.73-4.67-3.34C319.52,791.55,321.06,784.18,323.15,783.78Z"/><path class="cls-21" d="M322.19,793.8h0a.11.11,0,0,1-.11-.11.58.58,0,0,1,.23-.39,1.71,1.71,0,0,1,1.26-.23.11.11,0,0,1,.1.12.12.12,0,0,1-.13.1,1.43,1.43,0,0,0-1.07.18.36.36,0,0,0-.16.23A.11.11,0,0,1,322.19,793.8Z"/></g><ellipse class="cls-16" cx="238.11" cy="876.87" rx="32.79" ry="11.31"/><ellipse class="cls-5" cx="237.94" cy="870.84" rx="40.84" ry="11.31"/><path class="cls-7" d="M208.06,869.6s2.42-18.19,29.48-18.19,29.07,18.19,29.07,18.19S237.4,883.48,208.06,869.6Z"/><path class="cls-19" d="M266.61,869.61s-27.66,13.14-56.19,1c2-1.47,5.05-6.52,9.85-4.37,16,7.16,12.48-5.84,23.58-6.43,6.87-.36,23.34,10.25,11.78-4.58C265.61,860.63,266.61,869.61,266.61,869.61Z"/><path class="cls-19" d="M230.8,863.83c0,1.26-1.42,2.28-3.16,2.28s-3.16-1-3.16-2.28,1.41-2.28,3.16-2.28S230.8,862.57,230.8,863.83Z"/><path class="cls-19" d="M221.93,859a1.52,1.52,0,1,1-1.51-1.46A1.48,1.48,0,0,1,221.93,859Z"/><path class="cls-19" d="M238.35,857c0,.83-1.69,1.5-3.78,1.5s-3.77-.67-3.77-1.5,1.69-1.49,3.77-1.49S238.35,856.16,238.35,857Z"/><ellipse class="cls-20" cx="245.25" cy="866.77" rx="3.89" ry="2.09"/><ellipse class="cls-20" cx="257.49" cy="868.21" rx="1.49" ry="1.44"/><path class="cls-33" d="M215.62,873.13c-.41,2.07-4.75.2-8.05-.4s-5.64-2.78-5.23-4.85,3.42-3.26,6.72-2.66S216,871.06,215.62,873.13Z"/><path class="cls-34" d="M225.83,874.19c.06,2.11-4.59,1.17-8,1.26s-6.13-1.55-6.19-3.66,2.62-3.89,6-4S225.77,872.08,225.83,874.19Z"/><path class="cls-33" d="M235.42,875.45c.29,2.09-4.43,1.63-7.76,2.06s-6.27-.91-6.56-3,2.17-4.14,5.5-4.57S235.13,873.35,235.42,875.45Z"/><path class="cls-24" d="M217.88,875.45s-8.63-.28-4-6.59"/><path class="cls-24" d="M222.39,871.7s-4.65,5,3.93,5.89"/><path class="cls-24" d="M204.2,866.11s-5.61,2.9,2.72,6.47"/><path class="cls-35" d="M255.27,876.12l-2.86.48a2.69,2.69,0,0,1-3.17-2.31h0a2.64,2.64,0,0,1,2.23-2.84l2.86-.48a2.7,2.7,0,0,1,3.17,2.31h0A2.63,2.63,0,0,1,255.27,876.12Z"/><path class="cls-36" d="M257,873.5l-.1,0a2.59,2.59,0,0,1-2-3.08l0-.1a2.66,2.66,0,0,1,3.19-1.93l.1,0a2.56,2.56,0,0,1,2,3.08l0,.09A2.68,2.68,0,0,1,257,873.5Z"/><path class="cls-36" d="M265.32,874h-.1a2.61,2.61,0,0,1-2.61-2.63v-.09a2.63,2.63,0,0,1,2.73-2.52h.1a2.61,2.61,0,0,1,2.61,2.62v.1A2.64,2.64,0,0,1,265.32,874Z"/><path class="cls-36" d="M254.25,878.5H254a2.55,2.55,0,0,1-2.54-2.57v-.21a2.55,2.55,0,0,1,2.65-2.46h.25a2.55,2.55,0,0,1,2.54,2.56V876A2.56,2.56,0,0,1,254.25,878.5Z"/><path class="cls-36" d="M247.82,876.08h-.1a2.63,2.63,0,0,1-2.61-2.63v-.1a2.62,2.62,0,0,1,2.72-2.51h.1a2.61,2.61,0,0,1,2.61,2.63v.09A2.63,2.63,0,0,1,247.82,876.08Z"/><path class="cls-35" d="M259.85,870.14h-.1a2.62,2.62,0,0,1-2.61-2.63v-.1a2.63,2.63,0,0,1,2.73-2.51h.1a2.62,2.62,0,0,1,2.61,2.63v.1A2.62,2.62,0,0,1,259.85,870.14Z"/><path class="cls-35" d="M245.1,878.5H245a2.62,2.62,0,0,1-2.61-2.63v-.09a2.64,2.64,0,0,1,2.73-2.52h.1a2.6,2.6,0,0,1,2.61,2.62v.1A2.63,2.63,0,0,1,245.1,878.5Z"/><path class="cls-35" d="M268.47,871.19h-.26a2.55,2.55,0,0,1-2.53-2.56v-.22a2.55,2.55,0,0,1,2.64-2.46h.26a2.54,2.54,0,0,1,2.53,2.57v.21A2.56,2.56,0,0,1,268.47,871.19Z"/><path class="cls-35" d="M262,875.88h-.1a2.62,2.62,0,0,1-2.61-2.63v-.09a2.63,2.63,0,0,1,2.73-2.52h.1a2.61,2.61,0,0,1,2.61,2.62v.1A2.64,2.64,0,0,1,262,875.88Z"/><path class="cls-3" d="M275.7,841.63c0-1,4.85-1.72,10.83-1.72s10.82.77,10.82,1.72S294.88,854,286.53,854C277.77,854,275.7,842.57,275.7,841.63Z"/><ellipse class="cls-22" cx="286.53" cy="841.63" rx="10.83" ry="1.72"/><rect class="cls-16" x="285.69" y="849.77" width="1.67" height="13.56"/><ellipse class="cls-16" cx="286.53" cy="864.25" rx="6.79" ry="1.97"/><rect class="cls-37" x="1353.86" y="727.64" width="33.18" height="112.58" transform="translate(2740.89 1567.86) rotate(180)"/><rect class="cls-37" x="1404.39" y="727.64" width="33.18" height="112.58" transform="translate(2841.96 1567.86) rotate(180)"/><rect class="cls-37" x="1454.93" y="727.64" width="33.18" height="112.58" transform="translate(2943.03 1567.86) rotate(180)"/><rect class="cls-37" x="1505.46" y="727.64" width="33.18" height="112.58" transform="translate(3044.1 1567.86) rotate(180)"/><rect class="cls-38" x="1331" y="854.4" width="229.17" height="50.19" transform="translate(2891.17 1758.99) rotate(180)"/><polygon class="cls-21" points="1460.61 866.84 1454.1 902.13 1476.3 902.13 1482.6 887.27 1486.93 902.13 1509.15 902.13 1519.76 844.8 1460.61 866.84"/><path class="cls-23" d="M1473.48,800.89l-35.67,33.29L1405.3,822l2.27,10.58,33.53,21.08,34.59-29.77S1481.88,810.81,1473.48,800.89Z"/><path class="cls-8" d="M1473.48,800.89l-35.67,33.29-16.21-5.76-4,13.4s14.41,22.57,31.5,14.19S1497.83,825.05,1473.48,800.89Z"/><path class="cls-24" d="M1417.62,841.82s13.1,22.28,31.5,14.19"/><path class="cls-3" d="M1507.62,783s23.55,6.12,24.27,21.41-18.69,62.06-18.69,62.06l-55.88,11.2s11.29-69.14,16.16-76.79S1507.62,783,1507.62,783Z"/><path class="cls-24" d="M1457.32,877.68s6.66-44,13.14-68.44"/><path class="cls-5" d="M1483.58,805c14.57.63,25.44-8.18,30.82-19.58a50.77,50.77,0,0,0-6.78-2.43s-9.47,3.31-18.54,7.57C1478.92,797.64,1471.6,804.5,1483.58,805Z"/><path class="cls-19" d="M1368.11,798.16,1384,805l1.7,2.39-2.29,6.91-2.75.81-16.56-4.72s-.85-1.48.82-6.53S1368.11,798.16,1368.11,798.16Zm0,10.8,11.17,4a1.18,1.18,0,0,0,1-.06,1.23,1.23,0,0,0,.63-.74,1.3,1.3,0,0,0-.78-1.65l-11.17-4a1.18,1.18,0,0,0-1,.06,1.35,1.35,0,0,0-.63.75A1.3,1.3,0,0,0,1368.06,809Zm1.55-4.7,11.18,4a1.16,1.16,0,0,0,1-.06,1.31,1.31,0,0,0-.14-2.39l-11.18-4a1.16,1.16,0,0,0-1,.06,1.23,1.23,0,0,0-.63.74A1.3,1.3,0,0,0,1369.61,804.26Z"/><polygon class="cls-5" points="1377.97 803.3 1380.55 804.21 1381.43 801.54 1378.86 800.63 1377.97 803.3"/><polygon class="cls-5" points="1373.68 801.77 1376.25 802.69 1377.14 800.02 1374.56 799.1 1373.68 801.77"/><polygon class="cls-5" points="1369.39 800.25 1371.96 801.16 1372.84 798.49 1370.27 797.58 1369.39 800.25"/><polygon class="cls-5" points="1374.02 815.26 1376.59 816.17 1377.47 813.51 1374.9 812.59 1374.02 815.26"/><polygon class="cls-5" points="1369.73 813.73 1372.3 814.65 1373.18 811.98 1370.61 811.06 1369.73 813.73"/><polygon class="cls-5" points="1365.43 812.21 1368.01 813.12 1368.89 810.45 1366.32 809.54 1365.43 812.21"/><path class="cls-19" d="M1473.39,817.83l.44-1.33,6.4,2.27.54.18a7.34,7.34,0,0,1,2.86,2.1,9.91,9.91,0,0,0,10.84,2.57,34.67,34.67,0,0,1,10.17-2.27l.5-1.51,7.16,2.54c16.14,5.74,17.21,21.28,11.67,38s-15.56,28.34-31.71,22.6l-7.15-2.55.5-1.51a36.64,36.64,0,0,1-6.7-8.27,10,10,0,0,0-10.08-4.86,7,7,0,0,1-3.49-.17l-.54-.2-6.39-2.27.43-1.33c-6.35-5.85-6.65-15.61-3.29-25.77S1464.92,818.4,1473.39,817.83Z"/><path class="cls-7" d="M1473.53,816.38a7.25,7.25,0,0,1,2.86,2.1,9.91,9.91,0,0,0,10.84,2.57c5.74-2.12,12.1-3.28,17.83-1.24,16.14,5.74,17.2,21.28,11.67,38s-15.57,28.33-31.71,22.6c-5.73-2-10.07-7-13.35-12.33a10,10,0,0,0-10.08-4.87,7.05,7.05,0,0,1-3.49-.16c-12.43-4.42-13-16.32-8.77-29.21S1461.1,812,1473.53,816.38Z"/><path class="cls-24" d="M1471.67,868.1a10,10,0,0,0-10.08-4.87,7.05,7.05,0,0,1-3.49-.16c-12.43-4.42-13-16.32-8.77-29.21s11.77-21.9,24.2-17.48a7.25,7.25,0,0,1,2.86,2.1"/><path class="cls-24" d="M1505.06,819.81c16.14,5.74,17.2,21.28,11.67,38s-15.57,28.33-31.71,22.6"/><path class="cls-24" d="M1524,860.4c-5.53,16.74-15.56,28.34-31.71,22.6"/><polygon class="cls-21" points="1381.83 813.74 1467.47 845.37 1470.46 836.32 1384.12 806.8 1381.83 813.74"/><path class="cls-5" d="M1466.74,840.05a9.49,9.49,0,0,0,5.63,12,9,9,0,0,0,11.53-5.85,9.5,9.5,0,0,0-5.64-11.95A9,9,0,0,0,1466.74,840.05Z"/><polygon class="cls-21" points="1487.11 860.73 1491.15 862.17 1499.1 838.13 1495.06 836.69 1487.11 860.73"/><path class="cls-21" d="M1469.18,840.92a6.79,6.79,0,0,0,4,8.54,6.43,6.43,0,0,0,8.24-4.18,6.8,6.8,0,0,0-4-8.54A6.44,6.44,0,0,0,1469.18,840.92Z"/><polygon class="cls-5" points="1491.9 856.11 1493.02 856.51 1497.23 843.79 1496.1 843.39 1491.9 856.11"/><path class="cls-20" d="M1366.55,797.6l15.87,6.82,1.7,2.4-2.29,6.9-2.75.81-16.56-4.71s-.85-1.49.82-6.53S1366.55,797.6,1366.55,797.6Zm0,10.8,11.17,4a1.24,1.24,0,0,0,1.59-.8,1.31,1.31,0,0,0-.78-1.65l-11.17-4a1.23,1.23,0,0,0-1,.07,1.31,1.31,0,0,0,.15,2.38Zm1.55-4.69,11.18,4a1.21,1.21,0,0,0,1-.07,1.28,1.28,0,0,0,.64-.74,1.31,1.31,0,0,0-.78-1.64l-11.18-4a1.24,1.24,0,0,0-.95.06,1.28,1.28,0,0,0-.63.75A1.31,1.31,0,0,0,1368.05,803.71Z"/><polygon class="cls-5" points="1383.93 807.37 1495.69 846.52 1495.74 846.39 1383.98 807.24 1383.93 807.37"/><polygon class="cls-5" points="1383.53 808.6 1495.29 847.75 1495.33 847.62 1383.57 808.47 1383.53 808.6"/><polygon class="cls-5" points="1383.12 809.82 1494.88 848.98 1494.93 848.84 1383.17 809.69 1383.12 809.82"/><polygon class="cls-5" points="1382.72 811.05 1494.31 850.73 1494.35 850.6 1382.76 810.92 1382.72 811.05"/><polygon class="cls-5" points="1493.73 852.48 1493.77 852.35 1382.36 812.14 1382.31 812.27 1493.73 852.48"/><polygon class="cls-5" points="1493.32 853.7 1493.36 853.57 1381.95 813.37 1381.91 813.5 1493.32 853.7"/><polygon class="cls-5" points="1463.98 844.07 1464.24 844.16 1467.2 835.21 1466.94 835.12 1463.98 844.07"/><polygon class="cls-5" points="1460.69 842.9 1460.94 842.99 1463.9 834.04 1463.65 833.95 1460.69 842.9"/><polygon class="cls-5" points="1457.4 841.73 1457.65 841.82 1460.61 832.87 1460.36 832.78 1457.4 841.73"/><polygon class="cls-5" points="1454.1 840.56 1454.36 840.65 1457.32 831.7 1457.06 831.61 1454.1 840.56"/><polygon class="cls-5" points="1450.81 839.39 1451.06 839.48 1454.02 830.52 1453.77 830.43 1450.81 839.39"/><polygon class="cls-5" points="1447.69 837.69 1447.94 837.78 1450.56 829.88 1450.3 829.79 1447.69 837.69"/><polygon class="cls-5" points="1444.4 836.52 1444.65 836.61 1447.26 828.71 1447.01 828.62 1444.4 836.52"/><polygon class="cls-5" points="1441.1 835.35 1441.36 835.44 1443.97 827.54 1443.72 827.45 1441.1 835.35"/><polygon class="cls-5" points="1437.81 834.18 1438.06 834.27 1440.68 826.37 1440.42 826.28 1437.81 834.18"/><polygon class="cls-5" points="1434.52 833.01 1434.77 833.1 1437.38 825.2 1437.13 825.11 1434.52 833.01"/><polygon class="cls-5" points="1431.22 831.84 1431.48 831.93 1434.09 824.02 1433.84 823.93 1431.22 831.84"/><polygon class="cls-5" points="1427.93 830.67 1428.18 830.76 1430.8 822.85 1430.54 822.76 1427.93 830.67"/><polygon class="cls-5" points="1424.64 829.5 1424.89 829.59 1427.5 821.68 1427.25 821.59 1424.64 829.5"/><polygon class="cls-5" points="1421.34 828.33 1421.6 828.41 1424.21 820.51 1423.96 820.42 1421.34 828.33"/><polygon class="cls-5" points="1418.05 827.15 1418.3 827.24 1420.92 819.34 1420.66 819.25 1418.05 827.15"/><polygon class="cls-5" points="1414.76 825.98 1415.01 826.07 1417.62 818.17 1417.37 818.08 1414.76 825.98"/><polygon class="cls-5" points="1411.64 824.29 1411.89 824.38 1414.16 817.52 1413.9 817.43 1411.64 824.29"/><polygon class="cls-5" points="1408.35 823.12 1408.6 823.21 1410.86 816.35 1410.61 816.26 1408.35 823.12"/><polygon class="cls-5" points="1405.05 821.95 1405.31 822.03 1407.57 815.18 1407.32 815.09 1405.05 821.95"/><polygon class="cls-5" points="1401.76 820.77 1402.01 820.86 1404.28 814.01 1404.02 813.92 1401.76 820.77"/><polygon class="cls-5" points="1398.46 819.6 1398.72 819.69 1400.98 812.84 1400.73 812.75 1398.46 819.6"/><polygon class="cls-5" points="1395.17 818.43 1395.42 818.52 1397.69 811.67 1397.44 811.58 1395.17 818.43"/><polygon class="cls-5" points="1391.88 817.26 1392.13 817.35 1394.4 810.5 1394.14 810.41 1391.88 817.26"/><polygon class="cls-5" points="1388.59 816.09 1388.84 816.18 1391.1 809.33 1390.85 809.24 1388.59 816.09"/><polygon class="cls-5" points="1385.29 814.92 1385.55 815.01 1387.81 808.15 1387.56 808.07 1385.29 814.92"/><polygon class="cls-5" points="1381.72 813.65 1381.97 813.74 1384.23 806.88 1383.98 806.79 1381.72 813.65"/><line class="cls-24" x1="1379.08" y1="814.53" x2="1362.52" y2="809.82"/><path class="cls-24" d="M1382.42,804.42l-15.87-6.82s-1.53.59-3.21,5.69"/><path class="cls-23" d="M1507.62,783s-6.89-2.25-11.14-14.27c0,0-8.5-2-12.69,3.77s3.18,11.87,3.18,11.87,5.25,9.62-2.41,13.28c0,0,2.76,2,10.09-.28S1507.62,783,1507.62,783Z"/><path class="cls-21" d="M1488.61,792.37c10-7.09,8.5-21.84,7.87-23.62,0,0-8.51-2-12.7,3.76s3.18,11.87,3.18,11.87S1489.2,788.5,1488.61,792.37Z"/><path class="cls-23" d="M1469.16,766.21c1.14,9.9,5.59,21.3,13.56,20.31s16.47-14,15.33-23.89-8.53-17.11-16.51-16.12S1468,756.32,1469.16,766.21Z"/><path class="cls-21" d="M1453.77,735.87c-9.89,6.24,1.2,15.33,1.2,15.33h0a4,4,0,0,0-1.44,6.62c3.8,3.54,9.14,9.11,15.57,7.81a8.66,8.66,0,0,1,5.46-8.13c5.79-2.46,12.88,1.35,11.29,5.52l3.22,1.12-1.47,4.18a2,2,0,0,0,2.58,1.82h0s.55-6,4.8-6.74,2.65,9.41-1.72,9.21c2.21,2.73,3.55,3.31,5.29.92,0,0,8.15-6.56.52-18.25,0,0,3.85-7.25-7.92-9.49S1460.27,731.77,1453.77,735.87Z"/><line class="cls-24" x1="1493.85" y1="765.84" x2="1492.89" y2="770.16"/><line class="cls-24" x1="1495.45" y1="767.67" x2="1493.33" y2="768.2"/><path class="cls-21" d="M1471.62,771.3c.28.9.94,1.49,1.47,1.31s.73-1.05.45-2-.93-1.49-1.46-1.31S1471.34,770.4,1471.62,771.3Z"/><path class="cls-21" d="M1478.21,769.33c0,.95.43,1.72,1,1.73s1-.75,1-1.7-.43-1.72-1-1.72S1478.23,768.39,1478.21,769.33Z"/><path class="cls-24" d="M1477.91,774.18s-3.26-.79-4.27.26,2.89,2.51,2.89,2.51"/><line class="cls-24" x1="1475.88" y1="770.47" x2="1476.29" y2="773.93"/><path class="cls-5" d="M1478,779.15l6-4.74s2,4.16-.39,6.4S1478,779.15,1478,779.15Z"/><path class="cls-21" d="M1481.89,764.32s-2.6-1.9-4.53-.05S1481.89,764.32,1481.89,764.32Z"/><path class="cls-21" d="M1469.55,769s0-3.3,2.6-3.85S1469.55,769,1469.55,769Z"/><path class="cls-23" d="M1529.23,796.54s-2.78-3-10.09.15-9.34,49.83-9.34,49.83l-38.59,1.77c-3.92-1.51-5-4.44-4.47-8.24,0,0-4.72-.64-5.08,9.9s9.55,9.17,9.55,9.17l51.75,4.16S1540.65,810.9,1529.23,796.54Z"/><path class="cls-3" d="M1529.23,796.54s12.1,17.51,3.84,54.19c-6.07,26.95-53.62,11.94-53.62,11.94l4.13-14.92,26.22-1.23S1504.65,778.35,1529.23,796.54Z"/><path class="cls-24" d="M1469.55,848.58l40.25-2.06s9.39,3.06,8.16,7.18"/><path class="cls-24" d="M1509.8,846.52s-2.49-23,2.29-41.47"/><path class="cls-24" d="M1463.42,841.82s-.82,5.43.56,6.76"/><path class="cls-24" d="M1461.66,850a2.26,2.26,0,0,0,1.52,2.56"/><line class="cls-24" x1="1483.58" y1="847.75" x2="1479.45" y2="862.67"/><path class="cls-23" d="M1405.3,822l6.34-9,3.84,4.52,2.82,9.72s1.24,7.17-10.73,5.38Z"/><path class="cls-24" d="M1416.19,820s-2,.48-2,8.58"/><path class="cls-24" d="M1413.54,815.24s-2.68,6.17-2.68,9.86"/><path class="cls-24" d="M1411.64,813s-4.1,7.4-4.07,12.1"/><ellipse class="cls-31" cx="1445.13" cy="795.92" rx="7.6" ry="13.18"/><ellipse class="cls-24" cx="1445.13" cy="795.92" rx="7.6" ry="13.18"/><line class="cls-27" x1="1437.53" y1="801.99" x2="1437.53" y2="902"/><line class="cls-28" x1="1437.53" y1="847.94" x2="1437.53" y2="902"/><rect class="cls-16" x="1433.73" y="803.8" width="6.81" height="4.15" rx="1.23" transform="translate(2874.28 1611.75) rotate(180)"/><rect class="cls-22" x="1431.68" y="785.48" width="10.92" height="20.55" rx="4.81" transform="translate(2874.28 1591.52) rotate(180)"/><path class="cls-24" d="M1431.68,789.24v13s.17,3.76,3.7,3.76h3.52"/><line class="cls-24" x1="1442.6" y1="802.28" x2="1442.6" y2="789.24"/><path class="cls-24" d="M1445.13,809.1s1.45,8.31-7.6,8.31"/><path class="cls-21" d="M1386.08,798.82a.63.63,0,0,0,.55-.34l6.6-11.81a.67.67,0,0,0-.23-.91.64.64,0,0,0-.88.24l-6.6,11.82a.66.66,0,0,0,.56,1Z"/><path class="cls-21" d="M1386.07,799.81a1.56,1.56,0,0,0,1.39-.83l2.31-4.12a1.7,1.7,0,0,0-.59-2.27,1.58,1.58,0,0,0-2.19.6l-2.3,4.13a1.7,1.7,0,0,0,.58,2.27A1.56,1.56,0,0,0,1386.07,799.81Z"/><path class="cls-21" d="M1392.52,901.8a1,1,0,0,0,1-1v-128l7.06,1.12a1,1,0,0,0,1.1-.83,1,1,0,0,0-.8-1.14l-8.17-1.3a.94.94,0,0,0-.77.23,1,1,0,0,0-.34.76V900.8A1,1,0,0,0,1392.52,901.8Z"/><path class="cls-21" d="M1386.05,787.77h13.26a1.41,1.41,0,0,0,1.38-1.43h0a1.41,1.41,0,0,0-1.38-1.43h-13.26a1.4,1.4,0,0,0-1.38,1.43h0A1.4,1.4,0,0,0,1386.05,787.77Z"/><path class="cls-21" d="M1388,829.43h9.42a1.41,1.41,0,0,0,1.38-1.43h0a1.41,1.41,0,0,0-1.38-1.43H1388a1.41,1.41,0,0,0-1.38,1.43h0A1.41,1.41,0,0,0,1388,829.43Z"/><rect class="cls-21" x="1390.24" y="817.2" width="4.88" height="11.68" transform="translate(2785.36 1646.09) rotate(180)"/><path class="cls-21" d="M1407.37,901.8l.2,0a1,1,0,0,0,.74-1.18l-14.85-72.81a1,1,0,0,0-1.14-.77,1,1,0,0,0-.74,1.18L1406.43,901A1,1,0,0,0,1407.37,901.8Z"/><path class="cls-21" d="M1377.67,901.8a1,1,0,0,0,.94-.79l14.85-72.81a1,1,0,0,0-.74-1.18,1,1,0,0,0-1.14.77l-14.85,72.81a1,1,0,0,0,.74,1.18Z"/><path class="cls-21" d="M1380.29,888.63a.64.64,0,0,0,.51-.27l11.72-16.54,11.72,16.54a.62.62,0,0,0,.89.14.68.68,0,0,0,.14-.93L1393,870.3a.65.65,0,0,0-1,0l-12.24,17.27a.68.68,0,0,0,.14.93A.6.6,0,0,0,1380.29,888.63Z"/><path class="cls-21" d="M1392.52,884.77a2.29,2.29,0,0,0,2.25-2.33V869.1a2.25,2.25,0,1,0-4.49,0v13.34A2.28,2.28,0,0,0,1392.52,884.77Z"/><path class="cls-16" d="M1412.66,769.45c1,0,1.9,2,1.9,4.38s-.85,4.38-1.9,4.38h-5.9v-8.76Z"/><path class="cls-21" d="M1406.76,769.45v8.76h5.9c.64,0,1.21-.73,1.55-1.86-2.11-.21-3.77-2.41-3.77-5.1a5.85,5.85,0,0,1,.27-1.8Z"/><path class="cls-16" d="M1409.63,768.17c1.35,0,2.45,2.53,2.45,5.66s-1.1,5.66-2.45,5.66H1402V768.17Z"/><path class="cls-21" d="M1402,768.17v11.32h7.63c.95,0,1.77-1.25,2.18-3.07a3.56,3.56,0,0,1-.57,0c-3,0-5.51-3.2-5.51-7.15a10.57,10.57,0,0,1,.07-1.14Z"/><rect class="cls-21" x="1379.57" y="765.09" width="25.91" height="16.57" transform="translate(2785.04 1546.74) rotate(180)"/><rect class="cls-38" x="1382.45" y="767.19" width="16.3" height="12.24" transform="translate(2781.19 1546.61) rotate(180)"/><rect class="cls-16" x="1402" y="765.09" width="5.53" height="16.57" transform="translate(2809.53 1546.74) rotate(180)"/><rect class="cls-21" x="1383.95" y="763.72" width="15.55" height="1.37" transform="translate(2783.46 1528.8) rotate(180)"/><rect class="cls-21" x="1383.95" y="781.66" width="15.55" height="2.17" transform="translate(2783.46 1565.48) rotate(180)"/><rect class="cls-16" x="1399.5" y="781.66" width="4.88" height="2.17" transform="translate(2803.88 1565.48) rotate(180)"/><rect class="cls-16" x="1399.5" y="763.72" width="4.88" height="1.37" transform="translate(2803.88 1528.8) rotate(180)"/><polygon class="cls-21" points="1404.38 781.66 1399.5 783.83 1399.5 781.66 1404.38 781.66"/><line class="cls-24" x1="1407.53" y1="765.09" x2="1407.53" y2="781.66"/><g class="cls-39"><polygon class="cls-21" points="1389.32 785.22 1388.31 790.72 1391.77 790.72 1392.75 788.4 1393.43 790.72 1396.89 790.72 1398.54 781.78 1389.32 785.22"/><path class="cls-23" d="M1391.33,774.94l-5.56,5.18-5.07-1.89.36,1.65,5.22,3.29,5.4-4.64A3.58,3.58,0,0,0,1391.33,774.94Z"/><path class="cls-3" d="M1391.33,774.94l-5.56,5.18-2.53-.89-.62,2.09s2.25,3.51,4.91,2.21S1395.13,778.7,1391.33,774.94Z"/><path class="cls-21" d="M1386.28,783.9a3.14,3.14,0,0,0,1.29-.28.1.1,0,0,0,0-.13.09.09,0,0,0-.12-.06c-2.76,1.22-4.77-2.13-4.79-2.17a.1.1,0,0,0-.17.11S1384.06,783.9,1386.28,783.9Z"/><path class="cls-3" d="M1396.65,772.15s3.67,1,3.78,3.34-2.91,9.67-2.91,9.67l-8.71,1.74s1.76-10.77,2.52-12S1396.65,772.15,1396.65,772.15Z"/><path class="cls-21" d="M1388.81,787a.11.11,0,0,0,.1-.09c0-.07,1-6.9,2-10.66a.09.09,0,0,0-.06-.12.09.09,0,0,0-.12.07c-1,3.77-2,10.61-2.06,10.68a.1.1,0,0,0,.09.11Z"/><path class="cls-5" d="M1392.9,775.58a5,5,0,0,0,4.81-3.05,8.12,8.12,0,0,0-1.06-.38s-1.47.51-2.89,1.18C1392.18,774.43,1391,775.5,1392.9,775.58Z"/><path class="cls-19" d="M1374.91,774.51l2.47,1.06.26.38-.35,1.07-.43.13-2.58-.74s-.13-.23.13-1S1374.91,774.51,1374.91,774.51Zm0,1.68,1.74.62a.16.16,0,0,0,.15,0,.22.22,0,0,0,.1-.11.21.21,0,0,0-.12-.26l-1.74-.62a.19.19,0,0,0-.15,0,.18.18,0,0,0-.1.12A.19.19,0,0,0,1374.9,776.19Zm.24-.73,1.74.62a.19.19,0,0,0,.15,0,.18.18,0,0,0,.1-.12.19.19,0,0,0-.12-.25l-1.74-.62a.19.19,0,0,0-.15,0,.18.18,0,0,0-.1.11A.21.21,0,0,0,1375.14,775.46Z"/><polygon class="cls-5" points="1376.44 775.31 1376.85 775.45 1376.98 775.04 1376.58 774.89 1376.44 775.31"/><polygon class="cls-5" points="1375.78 775.07 1376.18 775.22 1376.31 774.8 1375.91 774.66 1375.78 775.07"/><polygon class="cls-5" points="1375.11 774.84 1375.51 774.98 1375.64 774.56 1375.24 774.42 1375.11 774.84"/><polygon class="cls-5" points="1375.83 777.17 1376.23 777.32 1376.37 776.9 1375.97 776.76 1375.83 777.17"/><polygon class="cls-5" points="1375.16 776.94 1375.56 777.08 1375.7 776.66 1375.3 776.52 1375.16 776.94"/><polygon class="cls-5" points="1374.49 776.7 1374.89 776.84 1375.03 776.43 1374.63 776.28 1374.49 776.7"/><path class="cls-19" d="M1391.32,777.58l.07-.21,1,.35.09,0a1.14,1.14,0,0,1,.44.33,1.55,1.55,0,0,0,1.69.4,5.48,5.48,0,0,1,1.59-.36l.08-.23,1.11.4c2.52.89,2.68,3.31,1.82,5.92s-2.43,4.42-4.94,3.52l-1.12-.39.08-.24a5.46,5.46,0,0,1-1-1.29,1.57,1.57,0,0,0-1.57-.76,1.12,1.12,0,0,1-.55,0l-.08,0-1-.36.07-.21c-1-.91-1-2.43-.51-4S1390,777.66,1391.32,777.58Z"/><path class="cls-20" d="M1391.34,777.35a1.07,1.07,0,0,1,.44.33,1.55,1.55,0,0,0,1.69.4,4.18,4.18,0,0,1,2.78-.2c2.52.9,2.68,3.32,1.82,5.93s-2.43,4.42-4.94,3.52a4.34,4.34,0,0,1-2.08-1.92,1.57,1.57,0,0,0-1.57-.76,1.13,1.13,0,0,1-.55,0c-1.93-.69-2-2.55-1.36-4.56S1389.4,776.66,1391.34,777.35Z"/><path class="cls-21" d="M1391.05,785.51h0a.1.1,0,0,0,0-.14,1.65,1.65,0,0,0-1.67-.81.92.92,0,0,1-.5,0,2.29,2.29,0,0,1-1.59-1.71,5.09,5.09,0,0,1,.29-2.71,5,5,0,0,1,1.38-2.33,2.19,2.19,0,0,1,2.27-.33.93.93,0,0,1,.4.3.1.1,0,1,0,.14-.14,1.19,1.19,0,0,0-.48-.36,2.38,2.38,0,0,0-2.46.37,5.34,5.34,0,0,0-1.44,2.42c-.8,2.44-.31,4.06,1.43,4.68a1.14,1.14,0,0,0,.59,0,1.49,1.49,0,0,1,1.48.72S1391,785.51,1391.05,785.51Z"/><path class="cls-21" d="M1394.37,787.67a2.94,2.94,0,0,0,1.91-.71,6.6,6.6,0,0,0,1.88-3.12c.73-2.2,1-5-1.88-6.05a.09.09,0,0,0-.12.06.1.1,0,0,0,.06.13c2.72,1,2.46,3.69,1.76,5.8a6.48,6.48,0,0,1-1.82,3,2.94,2.94,0,0,1-3,.43.09.09,0,0,0-.12.06.1.1,0,0,0,.06.13A3.74,3.74,0,0,0,1394.37,787.67Z"/><path class="cls-21" d="M1395.5,788.07a3,3,0,0,0,1.91-.7,6.69,6.69,0,0,0,1.88-3.13.09.09,0,0,0-.06-.12.09.09,0,0,0-.12.06,6.48,6.48,0,0,1-1.82,3,2.94,2.94,0,0,1-3,.43.09.09,0,0,0-.12.06.1.1,0,0,0,.06.13A3.74,3.74,0,0,0,1395.5,788.07Z"/><polygon class="cls-21" points="1377.05 776.94 1390.39 781.87 1390.86 780.46 1377.4 775.86 1377.05 776.94"/><path class="cls-5" d="M1390.28,781a1.48,1.48,0,0,0,.88,1.86A1.39,1.39,0,0,0,1393,782a1.47,1.47,0,0,0-.88-1.86A1.4,1.4,0,0,0,1390.28,781Z"/><polygon class="cls-21" points="1393.45 784.26 1394.09 784.49 1395.32 780.74 1394.69 780.51 1393.45 784.26"/><path class="cls-21" d="M1390.66,781.18a1.06,1.06,0,0,0,.63,1.33,1,1,0,0,0,1.28-.66,1.06,1.06,0,0,0-.63-1.33A1,1,0,0,0,1390.66,781.18Z"/><polygon class="cls-5" points="1394.2 783.54 1394.38 783.6 1395.03 781.62 1394.86 781.56 1394.2 783.54"/><path class="cls-20" d="M1374.66,774.42l2.48,1.07.26.37-.35,1.08-.43.12-2.58-.73s-.14-.23.12-1S1374.66,774.42,1374.66,774.42Zm0,1.69,1.74.62a.26.26,0,0,0,.15,0,.29.29,0,0,0,.1-.12.21.21,0,0,0-.13-.26l-1.74-.62a.26.26,0,0,0-.15,0,.29.29,0,0,0-.1.12A.21.21,0,0,0,1374.66,776.11Zm.24-.74,1.74.62a.16.16,0,0,0,.15,0,.22.22,0,0,0,.1-.11.21.21,0,0,0-.12-.26L1375,775a.17.17,0,0,0-.14,0,.18.18,0,0,0-.1.12A.19.19,0,0,0,1374.9,775.37Z"/><polygon class="cls-5" points="1377.37 775.95 1394.79 782.05 1394.8 782.03 1377.38 775.92 1377.37 775.95"/><polygon class="cls-5" points="1377.31 776.14 1394.73 782.24 1394.74 782.22 1377.32 776.12 1377.31 776.14"/><polygon class="cls-5" points="1377.25 776.33 1394.67 782.43 1394.67 782.41 1377.25 776.31 1377.25 776.33"/><polygon class="cls-5" points="1377.18 776.52 1394.58 782.7 1394.58 782.68 1377.19 776.5 1377.18 776.52"/><polygon class="cls-5" points="1394.49 782.98 1394.49 782.96 1377.13 776.69 1377.12 776.71 1394.49 782.98"/><polygon class="cls-5" points="1394.42 783.17 1394.43 783.15 1377.06 776.88 1377.06 776.9 1394.42 783.17"/><polygon class="cls-5" points="1389.85 781.67 1389.89 781.68 1390.35 780.28 1390.31 780.27 1389.85 781.67"/><polygon class="cls-5" points="1389.34 781.48 1389.38 781.5 1389.84 780.1 1389.8 780.09 1389.34 781.48"/><polygon class="cls-5" points="1388.82 781.3 1388.86 781.32 1389.32 779.92 1389.29 779.91 1388.82 781.3"/><polygon class="cls-5" points="1388.31 781.12 1388.35 781.13 1388.81 779.74 1388.77 779.72 1388.31 781.12"/><polygon class="cls-5" points="1387.8 780.94 1387.84 780.95 1388.3 779.55 1388.26 779.54 1387.8 780.94"/><polygon class="cls-5" points="1387.31 780.67 1387.35 780.69 1387.76 779.45 1387.72 779.44 1387.31 780.67"/><polygon class="cls-5" points="1386.8 780.49 1386.84 780.5 1387.24 779.27 1387.2 779.26 1386.8 780.49"/><polygon class="cls-5" points="1386.28 780.31 1386.32 780.32 1386.73 779.09 1386.69 779.08 1386.28 780.31"/><polygon class="cls-5" points="1385.77 780.12 1385.81 780.14 1386.22 778.91 1386.18 778.89 1385.77 780.12"/><polygon class="cls-5" points="1385.26 779.94 1385.3 779.96 1385.7 778.72 1385.66 778.71 1385.26 779.94"/><polygon class="cls-5" points="1384.74 779.76 1384.78 779.77 1385.19 778.54 1385.15 778.53 1384.74 779.76"/><polygon class="cls-5" points="1384.23 779.58 1384.27 779.59 1384.68 778.36 1384.64 778.35 1384.23 779.58"/><polygon class="cls-5" points="1383.72 779.39 1383.76 779.41 1384.16 778.18 1384.13 778.16 1383.72 779.39"/><polygon class="cls-5" points="1383.2 779.21 1383.24 779.23 1383.65 777.99 1383.61 777.98 1383.2 779.21"/><polygon class="cls-5" points="1382.69 779.03 1382.73 779.04 1383.14 777.81 1383.1 777.8 1382.69 779.03"/><polygon class="cls-5" points="1382.18 778.85 1382.22 778.86 1382.62 777.63 1382.59 777.62 1382.18 778.85"/><polygon class="cls-5" points="1381.69 778.58 1381.73 778.6 1382.08 777.53 1382.05 777.51 1381.69 778.58"/><polygon class="cls-5" points="1381.18 778.4 1381.22 778.41 1381.57 777.35 1381.53 777.33 1381.18 778.4"/><polygon class="cls-5" points="1380.66 778.22 1380.7 778.23 1381.06 777.16 1381.02 777.15 1380.66 778.22"/><polygon class="cls-5" points="1380.15 778.03 1380.19 778.05 1380.54 776.98 1380.51 776.97 1380.15 778.03"/><polygon class="cls-5" points="1379.64 777.85 1379.68 777.87 1380.03 776.8 1379.99 776.78 1379.64 777.85"/><polygon class="cls-5" points="1379.13 777.67 1379.16 777.68 1379.52 776.62 1379.48 776.6 1379.13 777.67"/><polygon class="cls-5" points="1378.61 777.49 1378.65 777.5 1379 776.43 1378.96 776.42 1378.61 777.49"/><polygon class="cls-5" points="1378.1 777.3 1378.14 777.32 1378.49 776.25 1378.45 776.24 1378.1 777.3"/><polygon class="cls-5" points="1377.59 777.12 1377.62 777.14 1377.98 776.07 1377.94 776.05 1377.59 777.12"/><polygon class="cls-5" points="1377.03 776.92 1377.07 776.94 1377.42 775.87 1377.38 775.86 1377.03 776.92"/><path class="cls-21" d="M1376.62,777.16a.1.1,0,0,0,.09-.07.11.11,0,0,0-.07-.13l-2.58-.73a.11.11,0,0,0-.12.07.1.1,0,0,0,.07.12l2.58.74Z"/><path class="cls-21" d="M1377.14,775.59a.11.11,0,0,0,.09-.07.1.1,0,0,0,0-.13l-2.48-1.06h-.07c-.05,0-.29.15-.56.95a.09.09,0,0,0,.06.12.1.1,0,0,0,.13-.06,1.79,1.79,0,0,1,.41-.8l2.43,1Z"/><path class="cls-23" d="M1396.65,772.15s-1.07-.35-1.74-2.22a2,2,0,0,0-2,.58c-.66.9.49,1.85.49,1.85s.82,1.5-.37,2.07c0,0,.43.32,1.57,0S1396.65,772.15,1396.65,772.15Z"/><path class="cls-21" d="M1393.69,773.61a3.87,3.87,0,0,0,1.22-3.68,2,2,0,0,0-2,.58c-.66.9.49,1.85.49,1.85A2.31,2.31,0,0,1,1393.69,773.61Z"/><path class="cls-23" d="M1390.66,769.53c.17,1.54.87,3.32,2.11,3.17s2.57-2.19,2.39-3.73a2.56,2.56,0,0,0-2.57-2.51A2.6,2.6,0,0,0,1390.66,769.53Z"/><path class="cls-21" d="M1388.26,764.8c-1.54,1,.19,2.39.19,2.39h0a.61.61,0,0,0-.23,1c.59.55,1.43,1.42,2.43,1.22a1.36,1.36,0,0,1,.85-1.27c.9-.38,2,.21,1.76.86l.5.18-.23.65a.31.31,0,0,0,.4.28h0s.09-.94.75-1,.41,1.47-.27,1.44c.35.42.56.51.83.14,0,0,1.27-1,.08-2.84,0,0,.6-1.13-1.24-1.48S1389.27,764.16,1388.26,764.8Z"/><path class="cls-21" d="M1394.36,770.25a.09.09,0,0,0,.09-.08l.15-.67a.11.11,0,0,0-.07-.13.1.1,0,0,0-.12.08l-.15.67a.1.1,0,0,0,.07.12Z"/><path class="cls-21" d="M1394.42,769.94h0l.33-.08a.11.11,0,0,0,.07-.13.1.1,0,0,0-.12-.07l-.33.08a.11.11,0,0,0-.07.12A.09.09,0,0,0,1394.42,769.94Z"/><path class="cls-21" d="M1391,770.32c0,.14.15.24.23.21s.11-.17.07-.31-.15-.23-.23-.2S1391,770.18,1391,770.32Z"/><path class="cls-21" d="M1392.07,770c0,.14.06.26.15.27s.16-.12.16-.27-.06-.27-.15-.27S1392.07,769.87,1392.07,770Z"/><path class="cls-21" d="M1391.81,771.31a.11.11,0,0,0,.09-.07.1.1,0,0,0-.06-.13,1.26,1.26,0,0,1-.41-.23.91.91,0,0,1,.57,0,.1.1,0,0,0,0-.2c-.09,0-.57-.12-.75.07a.16.16,0,0,0,0,.17c0,.19.38.33.53.39Z"/><path class="cls-21" d="M1391.77,770.83h0a.1.1,0,0,0,.09-.11l-.07-.54a.11.11,0,0,0-.11-.09.1.1,0,0,0-.08.12l.06.54A.1.1,0,0,0,1391.77,770.83Z"/><path class="cls-5" d="M1392,771.55l.94-.74s.31.65-.06,1S1392,771.55,1392,771.55Z"/><path class="cls-21" d="M1392.64,769.24s-.4-.3-.71,0S1392.64,769.24,1392.64,769.24Z"/><path class="cls-21" d="M1390.72,770s0-.51.4-.6S1390.72,770,1390.72,770Z"/><path class="cls-23" d="M1400,774.26s-.43-.48-1.57,0-1.46,7.77-1.46,7.77l-6,.27-.7-1.28s-.74-.1-.79,1.54A1.28,1.28,0,0,0,1391,784l8.06.65S1401.8,776.5,1400,774.26Z"/><path class="cls-3" d="M1400,774.26s1.89,2.73.6,8.44c-.95,4.2-8.36,1.86-8.36,1.86l.64-2.32,4.09-.19S1396.19,771.42,1400,774.26Z"/><path class="cls-21" d="M1398.26,783.27a.12.12,0,0,0,.1-.07c.21-.72-1.18-1.2-1.34-1.25h0l-6.28.32a.1.1,0,0,0-.09.1.1.1,0,0,0,.1.1l6.26-.32c.39.13,1.32.55,1.19,1a.09.09,0,0,0,.06.12Z"/><path class="cls-21" d="M1397,782.15h0a.11.11,0,0,0,.09-.11,21.12,21.12,0,0,1,.35-6.43.09.09,0,0,0-.07-.12.09.09,0,0,0-.12.07,21.74,21.74,0,0,0-.36,6.5A.11.11,0,0,0,1397,782.15Z"/><path class="cls-21" d="M1389.85,782.47a.09.09,0,0,0,.07,0,.11.11,0,0,0,0-.15c-.13-.11-.11-.63-.06-1a.09.09,0,0,0-.08-.11c-.06,0-.11,0-.11.08s-.13.91.11,1.14A.11.11,0,0,0,1389.85,782.47Z"/><path class="cls-21" d="M1389.72,783.08a.1.1,0,0,0,0-.19.26.26,0,0,1-.18-.29.1.1,0,0,0-.07-.12.11.11,0,0,0-.12.08.47.47,0,0,0,.3.52Z"/><path class="cls-23" d="M1380.7,778.23l1-1.41.6.71.44,1.51s.19,1.12-1.67.84Z"/><path class="cls-21" d="M1382.08,779.36a.1.1,0,0,0,.1-.1c0-1.11.25-1.24.25-1.24a.1.1,0,0,0,.07-.12.1.1,0,0,0-.12-.08c-.09,0-.38.19-.39,1.44a.1.1,0,0,0,.09.1Z"/><path class="cls-21" d="M1381.57,778.81h0a.1.1,0,0,0,.1-.1,5,5,0,0,1,.41-1.5.1.1,0,1,0-.18-.08,5.18,5.18,0,0,0-.43,1.58A.1.1,0,0,0,1381.57,778.81Z"/><path class="cls-21" d="M1381.06,778.81h0a.09.09,0,0,0,.09-.1,5.2,5.2,0,0,1,.63-1.84.1.1,0,0,0,0-.13.09.09,0,0,0-.13,0,5.3,5.3,0,0,0-.65,1.94A.09.09,0,0,0,1381.06,778.81Z"/></g></svg>